<?xml version="1.0" encoding="UTF-8" standalone="no"?>
<!-- Created with Inkscape (http://www.inkscape.org/) -->

<svg
   xmlns:dc="http://purl.org/dc/elements/1.1/"
   xmlns:cc="http://creativecommons.org/ns#"
   xmlns:rdf="http://www.w3.org/1999/02/22-rdf-syntax-ns#"
   xmlns:svg="http://www.w3.org/2000/svg"
   xmlns="http://www.w3.org/2000/svg"
   xmlns:sodipodi="http://sodipodi.sourceforge.net/DTD/sodipodi-0.dtd"
   xmlns:inkscape="http://www.inkscape.org/namespaces/inkscape"
   width="210mm"
   height="297mm"
   viewBox="0 0 744.09448819 1052.3622047"
   id="svg2"
   version="1.1"
   inkscape:version="0.91 r13725"
   sodipodi:docname="logo.svg">
  <defs
     id="defs4">
    <marker
       inkscape:stockid="Arrow1Lstart"
       orient="auto"
       refY="0.0"
       refX="0.0"
       id="marker6768"
       style="overflow:visible"
       inkscape:isstock="true">
      <path
         id="path6770"
         d="M 0.0,0.0 L 5.0,-5.0 L -12.5,0.0 L 5.0,5.0 L 0.0,0.0 z "
         style="fill-rule:evenodd;stroke:#000000;stroke-width:1.0pt"
         transform="scale(0.8) translate(12.5,0)" />
    </marker>
    <marker
       inkscape:stockid="Arrow1Lstart"
       orient="auto"
       refY="0.0"
       refX="0.0"
       id="Arrow1Lstart"
       style="overflow:visible"
       inkscape:isstock="true">
      <path
         id="path6504"
         d="M 0.0,0.0 L 5.0,-5.0 L -12.5,0.0 L 5.0,5.0 L 0.0,0.0 z "
         style="fill-rule:evenodd;stroke:#000000;stroke-width:1.0pt"
         transform="scale(0.8) translate(12.5,0)" />
    </marker>
    <filter
       style="color-interpolation-filters:sRGB;"
       inkscape:label="Drop Shadow"
       id="filter6021">
      <feFlood
         flood-opacity="0.498039"
         flood-color="rgb(0,0,0)"
         result="flood"
         id="feFlood6023" />
      <feComposite
         in="flood"
         in2="SourceGraphic"
         operator="in"
         result="composite1"
         id="feComposite6025" />
      <feGaussianBlur
         in="composite1"
         stdDeviation="1.1"
         result="blur"
         id="feGaussianBlur6027" />
      <feOffset
         dx="1.5"
         dy="1.2"
         result="offset"
         id="feOffset6029" />
      <feComposite
         in="SourceGraphic"
         in2="offset"
         operator="over"
         result="fbSourceGraphic"
         id="feComposite6031" />
      <feColorMatrix
         result="fbSourceGraphicAlpha"
         in="fbSourceGraphic"
         values="0 0 0 -1 0 0 0 0 -1 0 0 0 0 -1 0 0 0 0 1 0"
         id="feColorMatrix6033" />
      <feFlood
         id="feFlood6035"
         flood-opacity="0.498039"
         flood-color="rgb(0,0,0)"
         result="flood"
         in="fbSourceGraphic" />
      <feComposite
         id="feComposite6037"
         in2="fbSourceGraphic"
         in="flood"
         operator="in"
         result="composite1" />
      <feGaussianBlur
         id="feGaussianBlur6039"
         in="composite1"
         stdDeviation="1.1"
         result="blur" />
      <feOffset
         id="feOffset6041"
         dx="1.5"
         dy="1.2"
         result="offset" />
      <feComposite
         id="feComposite6043"
         in2="offset"
         in="fbSourceGraphic"
         operator="over"
         result="composite2" />
    </filter>
    <filter
       style="color-interpolation-filters:sRGB;"
       inkscape:label="Drop Shadow"
       id="filter6254">
      <feFlood
         flood-opacity="0.498039"
         flood-color="rgb(0,0,0)"
         result="flood"
         id="feFlood6256" />
      <feComposite
         in="flood"
         in2="SourceGraphic"
         operator="in"
         result="composite1"
         id="feComposite6258" />
      <feGaussianBlur
         in="composite1"
         stdDeviation="0"
         result="blur"
         id="feGaussianBlur6260" />
      <feOffset
         dx="0.526316"
         dy="1.2"
         result="offset"
         id="feOffset6262" />
      <feComposite
         in="SourceGraphic"
         in2="offset"
         operator="over"
         result="composite2"
         id="feComposite6264" />
    </filter>
  </defs>
  <sodipodi:namedview
     id="base"
     pagecolor="#ffffff"
     bordercolor="#666666"
     borderopacity="1.0"
     inkscape:pageopacity="0.0"
     inkscape:pageshadow="2"
     inkscape:zoom="0.7791994"
     inkscape:cx="93.650029"
     inkscape:cy="1276.7678"
     inkscape:document-units="px"
     inkscape:current-layer="layer1"
     showgrid="false"
     inkscape:window-width="1920"
     inkscape:window-height="1008"
     inkscape:window-x="0"
     inkscape:window-y="1"
     inkscape:window-maximized="1" />
  <metadata
     id="metadata7">
    <rdf:RDF>
      <cc:Work
         rdf:about="">
        <dc:format>image/svg+xml</dc:format>
        <dc:type
           rdf:resource="http://purl.org/dc/dcmitype/StillImage" />
        <dc:title />
      </cc:Work>
    </rdf:RDF>
  </metadata>
  <g
     inkscape:label="Calque 1"
     inkscape:groupmode="layer"
     id="layer1">
    <text
       xml:space="preserve"
       style="font-style:normal;font-variant:normal;font-weight:normal;font-stretch:normal;font-size:63.9779129px;line-height:125%;font-family:'Champagne &amp; Limousines';-inkscape-font-specification:'Champagne &amp; Limousines';letter-spacing:0px;word-spacing:0px;fill:#800000;fill-opacity:1;stroke:none;stroke-width:1px;stroke-linecap:butt;stroke-linejoin:miter;stroke-opacity:1;filter:url(#filter6254)"
       x="-459.93607"
       y="-466.74423"
       id="text4813"
       sodipodi:linespacing="125%"
       transform="matrix(0.96380842,0,0,0.96380842,225.07772,289.85456)"><tspan
         sodipodi:role="line"
         id="tspan4815"
         x="-459.93607"
         y="-466.74423"
         style="font-style:normal;font-variant:normal;font-weight:normal;font-stretch:normal;font-family:'Champagne &amp; Limousines';-inkscape-font-specification:'Champagne &amp; Limousines';fill:#800000">Le système d'exploitation pédagogique</tspan></text>
    <text
       xml:space="preserve"
       style="font-style:normal;font-variant:normal;font-weight:normal;font-stretch:normal;font-size:267.92044067px;line-height:125%;font-family:'Champagne &amp; Limousines';-inkscape-font-specification:'Champagne &amp; Limousines';letter-spacing:0px;word-spacing:0px;fill:#000000;fill-opacity:1;stroke:none;stroke-width:1px;stroke-linecap:butt;stroke-linejoin:miter;stroke-opacity:1"
       x="-219.07809"
       y="-206.10529"
       id="text4805"
       sodipodi:linespacing="125%"><tspan
         sodipodi:role="line"
         id="tspan4807"
         x="-219.07809"
         y="-206.10529"
         style="font-style:normal;font-variant:normal;font-weight:normal;font-stretch:normal;font-family:'SV Basic Manual';-inkscape-font-specification:'SV Basic Manual'">C S2000</tspan></text>
    <g
       id="g6060"
       transform="translate(-183.93347,306.72777)">
      <path
         style="fill:#800000"
         d="m 141.3525,-521.18696 c -10.72065,-1.36175 -23.3465,-6.07069 -32.77377,-12.22333 -6.7873,-4.42967 -18.487428,-16.1298 -22.917083,-22.91708 -9.786489,-14.99521 -14.337979,-33.74231 -12.440197,-51.24001 2.08032,-19.18058 6.674861,-34.73631 20.409815,-48.47123 13.805905,-13.80594 31.374405,-20.33604 50.646175,-22.34995 17.52723,-1.83163 36.03013,2.68666 50.99318,12.45221 6.78732,4.42966 18.48742,16.12976 22.91711,22.91708 6.88092,10.54321 11.08204,22.58715 12.45222,35.69871 1.8316,17.52723 -2.6867,36.03009 -12.45222,50.99319 -4.42969,6.78728 -16.12979,18.48741 -22.91711,22.91708 -15.73673,10.27046 -34.96855,14.63036 -53.91812,12.22333 z m 28.04329,-15.69938 c 17.90484,15.82409 46.70557,-12.48721 55.08095,-29.21855 9.63962,-19.25686 6.23691,-52.90114 -4.73682,-71.62497 -1.31769,-2.24829 -14.12239,1.05389 -14.3152,1.05389 -0.19287,0 -0.15185,1.05959 0.0911,2.35463 0.46982,2.50442 -0.73461,8.21754 -1.73244,8.21754 -0.3275,0 -0.76133,-0.63432 -0.96406,-1.40959 -0.28683,-1.09703 -0.96939,-1.41335 -3.07766,-1.42639 -1.48998,-0.009 -4.61202,-0.8319 -6.93791,-1.82823 -2.32588,-0.99635 -4.99237,-1.98682 -5.92557,-2.20106 -1.69303,-0.3887 -1.6939,-0.38582 -0.3924,1.3396 0.71738,0.95106 2.05665,2.29663 2.97614,2.99022 1.54795,1.16763 1.76586,1.17595 2.94128,0.11229 1.18841,-1.07545 1.41062,-0.98815 3.47809,1.36654 2.98841,3.40364 3.10343,7.38567 0.27024,9.3587 -2.47659,1.72473 -6.16318,2.97506 -8.77191,2.97506 -1.55991,0 -2.32552,-0.51916 -3.24268,-2.19886 -1.57344,-2.88153 -8.35962,-11.81491 -10.51016,-13.83563 -2.65633,-2.49598 -3.34609,-1.85278 -1.13377,1.05721 1.10514,1.4537 4.02753,5.69139 6.49415,9.41714 5.30341,8.01054 7.25194,9.43196 12.13671,8.85342 1.90941,-0.22603 3.44184,-0.12037 3.44184,0.23765 0,0.35485 -0.65953,2.40787 -1.4656,4.56231 -1.18529,3.16799 -1.97313,4.17606 -4.11942,5.271 -3.00941,1.53529 -7.05125,5.81624 -7.20248,7.62856 -0.0555,0.66491 -0.0312,3.27047 0.0538,5.79019 0.14399,4.26396 -0.0931,5.06361 -3.42319,11.54539 -1.96786,3.83027 -3.57797,7.38722 -3.57797,7.90434 0,0.5171 -0.63433,1.27969 -1.40964,1.69462 -0.77529,0.41494 -1.4189,1.1397 -1.43027,1.61061 -0.0346,1.43985 -3.96248,5.2835 -6.96369,6.8146 -1.56147,0.7966 -4.335,1.52625 -6.16338,1.62147 -3.23795,0.16871 -3.33714,0.11287 -3.81537,-2.14641 -0.26995,-1.27573 -0.96403,-2.86156 -1.54219,-3.52408 -0.57819,-0.66248 -1.45143,-2.4732 -1.94054,-4.0238 -0.48912,-1.55056 -1.51244,-4.05816 -2.27402,-5.57235 -1.71502,-3.40981 -1.76608,-6.71737 -0.14605,-9.45992 1.09736,-1.85768 1.1341,-2.4706 0.32186,-5.37166 -0.5043,-1.80112 -1.8229,-4.52548 -2.93027,-6.05414 -1.47307,-2.03352 -2.01341,-3.59439 -2.01341,-5.81623 0,-3.30916 -0.9247,-4.72832 -3.08092,-4.72832 -0.76413,0 -1.98403,-0.53818 -2.71083,-1.19593 -1.2428,-1.12473 -1.58882,-1.12473 -5.80971,0 -9.10955,2.42735 -13.9197,1.04548 -16.66099,-4.78639 -0.82681,-1.75903 -1.75242,-3.35215 -2.05684,-3.5403 -0.75951,-0.46939 1.29786,-9.26739 2.91528,-12.46685 0.72488,-1.43392 2.17582,-3.17834 3.22427,-3.87646 1.04848,-0.69815 3.88225,-3.25164 6.29727,-5.67444 4.16316,-4.17649 4.56731,-4.40595 7.78888,-4.42189 1.86884,-0.009 4.66653,-0.31844 6.21713,-0.68713 3.84571,-0.91437 7.40054,-0.21991 7.40054,1.44562 0,1.45791 0.7101,2.02071 4.22887,3.35162 4.62925,1.75094 4.93367,1.78043 4.93367,0.47797 0,-1.03908 0.41319,-1.15622 2.64307,-0.74929 8.4291,1.53823 10.89335,1.36032 12.08846,-0.87281 1.06234,-1.98493 -0.17773,-3.08734 -4.18513,-3.72083 -2.2177,-0.35059 -4.36979,-1.21097 -5.36317,-2.14423 -1.64897,-1.54911 -1.9362,-1.38356 -1.69601,0.97768 0.18849,1.85429 -1.87678,1.49029 -3.22576,-0.5685 -1.42179,-2.16997 -7.30957,-6.35761 -7.30957,-5.19891 0,0.45089 1.17282,1.89406 2.60626,3.20705 1.72645,1.58135 2.36982,2.62366 1.9059,3.08758 -0.46392,0.46392 -1.75017,-0.36935 -3.81022,-2.46837 -4.0311,-4.10741 -6.53302,-4.26039 -10.91754,-0.66761 -3.16949,2.59715 -6.73844,3.63429 -9.83329,2.85753 -2.13548,-0.53597 -2.40872,-2.76674 -0.64696,-5.28201 1.06533,-1.52096 1.47586,-1.61012 5.38022,-1.16839 4.02759,0.45566 4.20902,0.40979 3.8474,-0.97305 -0.31972,-1.22267 0.35926,-1.80318 4.31095,-3.68566 2.57973,-1.22892 5.06426,-2.73725 5.52111,-3.35186 0.75083,-1.01008 0.87664,-0.99891 1.30882,0.11607 0.66461,1.71443 3.50465,1.5467 5.23358,-0.3091 0.79041,-0.84841 1.43707,-1.7999 1.43707,-2.11445 0,-0.31454 0.45702,-0.5719 1.01563,-0.5719 0.55859,0 1.21104,-0.3162 1.4499,-0.70269 0.28653,-0.46348 -0.17076,-0.47265 -1.34308,-0.0262 -1.16559,0.44315 -1.92882,0.43064 -2.21744,-0.0364 -0.28858,-0.46674 -0.78007,-0.42994 -1.42682,0.10677 -0.5427,0.45039 -0.80433,1.11401 -0.58139,1.4747 0.22282,0.36071 0.0428,1.09261 -0.40018,1.62643 -0.67957,0.81882 -1.12923,0.78644 -2.87549,-0.20712 -1.13849,-0.64771 -2.07195,-1.43336 -2.07442,-1.7459 -0.009,-0.99883 6.32314,-3.40812 9.67285,-3.6811 1.78,-0.14515 8.63364,-10.95892 8.946,-11.46226 1.75911,-2.8347 -23.06762,-2.92692 -33.65254,-2.7301 -24.85489,0.46215 -57.919643,36.46138 -55.887549,59.94027 0.592005,6.83986 10.686211,2.0926 11.684016,2.42521 0.403354,0.13439 0.733379,0.81352 0.733379,1.50905 0,0.6955 0.49891,1.67865 1.108715,2.18475 1.891121,1.56947 3.972699,6.38397 3.665396,8.47772 -0.15971,1.08749 -0.03049,1.81671 0.287108,1.62048 0.317521,-0.19636 0.577294,-0.0506 0.577294,0.32364 0,0.37424 0.63048,0.51556 1.401065,0.31406 0.888662,-0.23243 1.560642,0.0495 1.837426,0.77078 0.239993,0.62547 1.216534,1.13718 2.17003,1.13718 2.58106,0 6.57328,3.31864 6.57328,5.46421 0,0.97508 -1.14465,4.95563 -2.54366,8.84564 -2.09585,5.82757 -2.45102,7.57917 -2.01746,9.94911 0.60333,3.29763 0.64338,6.92657 0.13468,12.21315 l -0.35575,3.69838 -1.28914,11.53891 c -1.335978,11.95822 25.60391,7.03066 37.78778,9.70145 8.67473,1.90152 21.9949,1.42536 30.51012,-1.0907 z m 14.14658,-28.95947 c -0.24465,-0.63776 -0.0847,-2.36193 0.35555,-3.83148 0.44031,-1.46953 0.80052,-3.79859 0.80052,-5.1757 0,-2.0608 0.40528,-2.75744 2.29063,-3.93749 1.25988,-0.78856 2.92497,-2.39935 3.70028,-3.57955 2.12362,-3.23267 3.46289,-2.84438 2.87478,0.83346 -0.39791,2.48838 -3.8682,11.39488 -5.97776,15.34182 -0.8115,1.51837 -3.50603,1.75086 -4.044,0.34894 z m 28.16737,-30.20573 c 0.37102,-0.98858 0.22982,-1.21115 -0.57282,-0.90312 -0.58589,0.22487 -1.06524,0.10498 -1.06524,-0.26617 0,-0.37112 0.79292,-0.60917 1.76205,-0.52897 2.06357,0.17076 2.21413,0.70767 0.57283,2.04274 -1.04865,0.85302 -1.13101,0.8123 -0.69682,-0.3446 z m -3.75247,-2.56457 c 0,-0.38766 0.49447,-0.70482 1.09881,-0.70482 0.60433,0 0.90279,0.31716 0.6632,0.70482 -0.2397,0.38765 -0.73404,0.70481 -1.09883,0.70481 -0.36476,0 -0.66318,-0.31716 -0.66318,-0.70481 z m 2.13585,-5.78989 c -0.0174,-3.49069 0.18996,-4.13037 1.56439,-4.79637 1.41218,-0.68434 1.45354,-0.66129 0.37775,0.21061 -0.90032,0.72962 -1.10457,1.61721 -0.80165,3.48371 0.22341,1.37755 0.0631,3.09533 -0.35632,3.8173 -0.61245,1.05404 -0.76694,0.51908 -0.78417,-2.71525 z m 5.43268,1.0793 c -0.78702,-1.39136 -1.19254,-4.45196 -0.58985,-4.45196 0.72124,0 1.83209,4.11077 1.26429,4.67858 -0.192,0.19198 -0.49537,0.0899 -0.67444,-0.22662 z m -8.27334,-6.62514 c 0,-4.80867 0.21933,-6.32881 0.881,-6.10781 0.48456,0.16174 0.91214,1.21903 0.95019,2.34937 0.0381,1.13033 0.17163,2.37232 0.29689,2.75997 0.39902,1.23506 -0.85341,7.40052 -1.5033,7.40052 -0.34364,0 -0.62478,-2.88091 -0.62478,-6.40205 z m 4.35623,-7.7391 c -0.51142,-0.82609 -0.74402,-1.68785 -0.51687,-1.91498 0.68092,-0.6809 1.94969,1.01768 1.68901,2.26114 -0.20275,0.9679 -0.39346,0.91164 -1.17214,-0.34616 z m -3.92731,-9.83674 c -1.32323,-3.30706 -1.38301,-3.74704 -0.42892,-3.15739 0.38761,0.2397 0.70481,1.02855 0.70481,1.75329 0,0.72471 0.47573,1.79344 1.0572,2.37491 1.19774,1.19774 1.35087,1.8627 0.42894,1.8627 -0.34557,0 -1.13846,-1.27508 -1.76203,-2.83351 z m -58.53445,-13.75197 c -0.75246,-0.56916 -1.0163,-1.0348 -0.58628,-1.0348 1.33706,0 3.01163,0.82574 3.01163,1.48502 0,0.89992 -0.84854,0.74243 -2.42535,-0.45022 z m -3.49061,-2.03313 c 0.23562,-0.61388 0.73794,-1.11612 1.1164,-1.11612 0.92642,0 0.34632,1.60189 -0.70726,1.95309 -0.51506,0.17163 -0.67258,-0.1504 -0.40914,-0.83697 z m -7.02231,-9.98114 c 0.61522,-0.93892 1.34516,-1.70715 1.6221,-1.70715 0.27693,0 0.47832,-0.70374 0.44754,-1.56383 -0.0309,-0.86013 0.41979,-1.66123 1.00127,-1.78023 0.79126,-0.16203 1.03937,0.41179 0.98628,2.28083 -0.0837,2.94891 -0.15185,3.03673 -2.98533,3.84938 l -2.19045,0.62822 z m -3.27241,-0.21642 c 0,-0.34306 0.79292,-1.14329 1.76201,-1.77828 2.04167,-1.33775 2.36977,-0.48086 0.47312,1.23558 -1.42959,1.29373 -2.23513,1.48933 -2.23513,0.5427 z"
         id="path5743-3-2-2-4"
         inkscape:connector-curvature="0"
         sodipodi:nodetypes="sssssssssssscssscscccssscssssscscsssccssscscccsssssssssscssscssssscscccssssssssssscsssccccccccccsscssccsccssscccssccccssssscccsscccsscsscccccccsscscccssccccscsssscssccscccsccssccscss" />
      <path
         style="fill:#000000"
         d="m 138.37651,-520.56996 c -11.25492,-2.30935 -32.16751,-12.76829 -40.07002,-20.03939 -13.278534,-12.21871 -22.64776,-31.32952 -25.116923,-51.233 -4.747898,-38.26823 15.978141,-72.28282 51.522113,-84.55692 19.19006,-6.62625 26.82683,-7.15114 41.93976,-2.88214 29.02157,8.19823 47.48826,21.96564 59.14752,44.09521 4.72259,8.96424 5.15818,11.05844 5.68775,27.35895 0.65944,20.33451 -2.05489,35.24227 -8.68783,47.69748 -5.45062,10.2345 -20.95387,24.94446 -32.16751,30.51967 -16.76817,8.33805 -37.87793,11.99026 -52.25486,9.04014 z m 29.02632,-6.15267 c 3.02201,-0.80395 9.42846,-2.46652 14.23631,-3.69481 15.14223,-3.8673 32.06896,-18.55929 40.19062,-34.88448 3.99517,-8.03107 4.4435,-10.68278 4.975,-29.44125 0.37968,-13.46768 -0.1003,-23.12199 -1.39546,-27.84528 -2.30201,-8.4034 -14.52413,-27.88653 -22.13221,-35.28148 -6.78208,-6.59233 -39.75896,-18.23026 -52.08227,-18.38077 -7.48755,-0.0934 -36.55709,7.4229 -42.42338,10.96584 -16.294547,9.84282 -29.858865,37.1086 -31.888392,64.09995 l -0.993178,13.2086 8.128298,17.00923 c 11.442137,23.9413 21.613332,33.34454 45.320182,41.89651 11.29889,4.0751 27.756,5.09092 38.06448,2.34794 z"
         id="path62504-88-1-0-5-6-6-0-5"
         inkscape:connector-curvature="0" />
    </g>
    <text
       sodipodi:linespacing="125%"
       id="text6137"
       y="-173.47256"
       x="-902.20581"
       style="font-style:normal;font-weight:normal;font-size:217.93804932px;line-height:125%;font-family:sans-serif;letter-spacing:0px;word-spacing:0px;fill:#000000;fill-opacity:1;stroke:none;stroke-width:1px;stroke-linecap:butt;stroke-linejoin:miter;stroke-opacity:1"
       xml:space="preserve"
       transform="scale(-0.88709537,1.1272745)"><tspan
         style="font-style:normal;font-variant:normal;font-weight:normal;font-stretch:normal;font-family:'SV Basic Manual';-inkscape-font-specification:'SV Basic Manual';fill:#000000"
         y="-173.47256"
         x="-902.20581"
         id="tspan6139"
         sodipodi:role="line">{ </tspan></text>
    <path
       style="fill:none;fill-opacity:1;fill-rule:evenodd;stroke:#000000;stroke-width:17;stroke-linecap:butt;stroke-linejoin:miter;stroke-miterlimit:4;stroke-dasharray:none;stroke-opacity:1"
       d="m 819.45973,-268.84613 51.2726,0"
       id="path5897-4-5"
       inkscape:connector-curvature="0" />
    <path
       style="fill:none;fill-opacity:1;fill-rule:evenodd;stroke:#000000;stroke-width:17;stroke-linecap:butt;stroke-linejoin:miter;stroke-miterlimit:4;stroke-dasharray:none;stroke-opacity:1"
       d="m 793.53713,-268.84613 22.91389,0"
       id="path5897-4-5-3"
       inkscape:connector-curvature="0" />
    <path
       style="fill:none;fill-opacity:1;fill-rule:evenodd;stroke:#000000;stroke-width:17;stroke-linecap:butt;stroke-linejoin:miter;stroke-miterlimit:4;stroke-dasharray:none;stroke-opacity:1"
       d="m 779.18487,-268.84613 11.34354,0"
       id="path5897-4-5-3-5"
       inkscape:connector-curvature="0" />
  </g>
</svg>
